# Blender 3.3.1
# www.blender.org
mtllib attacker-1.mtl
o 2.001
v -0.464493 -0.008402 -0.811256
v 0.450963 1.329600 0.810510
v -0.471991 -0.001862 0.826123
v -0.957772 1.312092 -0.005115
v 0.942810 0.000002 -0.000000
v 1.865138 1.347573 -0.005858
v 0.451215 1.322329 -0.822468
vn -0.9373 -0.3484 -0.0029
vn -0.4746 0.3385 0.8125
vn 0.0037 -1.0000 0.0040
vn -0.4769 0.3213 -0.8181
vn -0.0126 0.9999 -0.0045
vn 0.4746 -0.3309 -0.8157
vn 0.4770 -0.3220 0.8178
s 0
f 4//1 1//1 3//1
f 4//2 3//2 2//2
f 3//3 1//3 5//3
f 4//4 7//4 1//4
f 7//5 4//5 2//5 6//5
f 1//6 7//6 6//6 5//6
f 2//7 3//7 5//7 6//7
