# Blender 3.3.1
# www.blender.org
mtllib defender-1.mtl
o 2
v -0.471405 -0.000158 0.816497
v -0.945132 1.318715 0.012976
v 0.469761 1.323128 0.820113
v -0.467104 -0.004910 -0.807341
v 1.888953 1.322789 0.003412
v 1.893254 1.318038 -1.620426
v 2.366981 -0.000835 -0.816905
v 0.952089 -0.005248 -1.624042
v 0.952089 -0.005248 -1.624042
vn -0.4684 0.3309 0.8192
vn -0.9408 -0.3389 -0.0015
vn 0.4684 -0.3309 -0.8192
vn 0.4697 -0.3363 0.8163
vn 0.9408 0.3389 0.0015
vn -0.4697 0.3363 -0.8163
vn -0.0014 1.0000 -0.0029
vn 0.0014 -1.0000 0.0029
s 0
f 3//1 2//1 1//1
f 4//2 1//2 2//2
f 8//3 6//3 7//3
f 1//4 7//4 5//4 3//4
f 6//5 5//5 7//5
f 4//6 2//6 6//6 9//6
f 2//7 3//7 5//7 6//7
f 4//8 9//8 7//8 1//8
