# Blender 3.3.1
# www.blender.org
mtllib guardian.mtl
o Solid.004
v 0.478233 1.332935 -0.802712
v -0.466048 0.001322 0.807471
v -0.471650 -0.000782 -0.807908
v 0.483836 1.335039 0.812668
v -0.930623 1.334256 0.004760
v 0.942809 0.000002 0.000000
vn -0.4680 0.3365 -0.8171
vn -0.9450 -0.3271 0.0037
vn -0.4683 0.3303 0.8195
vn 0.0002 1.0000 -0.0013
vn 0.4683 -0.3303 -0.8195
vn -0.0002 -1.0000 0.0013
vn 0.4680 -0.3365 0.8171
vn 0.9450 0.3271 -0.0037
s 0
f 5//1 1//1 3//1
f 5//2 3//2 2//2
f 5//3 2//3 4//3
f 5//4 4//4 1//4
f 6//5 3//5 1//5
f 6//6 2//6 3//6
f 6//7 4//7 2//7
f 6//8 1//8 4//8
