# Blender 3.3.1
# www.blender.org
mtllib board.mtl
o Cube.001
v -12.919798 -1.040001 0.042841
v -12.919798 -0.715024 0.042841
v -12.577356 -0.720323 0.041470
v -12.502206 -0.717794 0.041169
v -12.361982 -0.691281 0.040608
v -12.215174 -0.607344 0.040020
v -12.181362 -0.534356 0.039885
v -12.186409 -0.496803 0.039905
v -12.239439 -0.426736 0.040118
v -12.243736 -0.423947 0.040135
v -12.379319 -0.289187 0.040678
v -12.386050 -0.239115 0.040704
v -12.353174 -0.337638 0.040573
v -12.247354 -0.422368 0.040149
v -12.055223 -0.007606 0.039380
v -12.145222 -0.029882 0.039740
v -12.290895 -0.098293 0.040324
v -12.340967 -0.141798 0.040524
v -12.373096 -0.189348 0.040653
v 0.007559 -0.713317 7.437272
v 0.006714 -0.718699 7.231093
v 0.007561 -1.040001 7.437522
v 0.005437 -0.000000 6.906948
v 0.006574 -0.716254 7.191025
v 0.006406 -0.706457 7.149071
v 0.006250 -0.689758 7.110129
v 0.006113 -0.666800 7.075699
v 0.005998 -0.638463 7.047100
v 0.005911 -0.605839 7.025434
v 0.005856 -0.570179 7.011531
v 0.005833 -0.532855 7.005927
v 0.005845 -0.495301 7.008839
v 0.005890 -0.458960 7.020154
v 0.005967 -0.425228 7.039432
v 0.005977 -0.422438 7.041912
v 0.006306 -0.237589 7.124014
v 0.006290 -0.287661 7.120129
v 0.006230 -0.336116 7.105047
v 0.006127 -0.381092 7.079340
v 0.005986 -0.420859 7.043997
v 0.005542 -0.006121 6.933156
v 0.005750 -0.028385 6.985078
v 0.005934 -0.058997 7.030984
v 0.006086 -0.096778 7.069118
v 0.006202 -0.140278 7.098005
v 0.006276 -0.187824 7.116540
v -12.302302 -0.668315 0.040369
v -12.252728 -0.639973 0.040170
v -12.191074 -0.571681 0.039924
v -12.206018 -0.460464 0.039983
v -12.224796 -0.060503 0.040058
v -12.429483 -0.707990 0.040842
v -12.308614 -0.382608 0.040394
v -11.998823 -0.000001 0.039155
v 12.897647 -1.040001 -0.000039
v 12.897647 -0.715024 -0.000039
v 12.555202 -0.720323 -0.000039
v 12.480052 -0.717794 -0.000039
v 12.339828 -0.691281 -0.000039
v 12.193018 -0.607344 -0.000039
v 12.159205 -0.534356 -0.000039
v 12.164252 -0.496803 -0.000039
v 12.217283 -0.426736 -0.000039
v 12.221581 -0.423947 -0.000039
v 12.357164 -0.289187 -0.000039
v 12.363895 -0.239115 -0.000039
v 12.331019 -0.337638 -0.000039
v 12.225198 -0.422368 -0.000039
v 12.033066 -0.007606 -0.000039
v 12.123065 -0.029882 -0.000039
v 12.268739 -0.098293 -0.000039
v 12.318812 -0.141798 -0.000039
v 12.350942 -0.189348 -0.000039
v -0.000006 -0.713317 -7.446157
v 0.000014 -0.718699 -7.239977
v -0.000007 -1.040001 -7.446407
v -0.000007 -0.000000 -6.915830
v -0.000007 -0.716254 -7.199908
v -0.000007 -0.706457 -7.157954
v -0.000007 -0.689758 -7.119012
v -0.000007 -0.666800 -7.084581
v -0.000007 -0.638463 -7.055982
v -0.000007 -0.605839 -7.034316
v -0.000007 -0.570179 -7.020413
v -0.000007 -0.532855 -7.014809
v -0.000007 -0.495301 -7.017721
v -0.000007 -0.458960 -7.029036
v -0.000007 -0.425228 -7.048314
v -0.000007 -0.422438 -7.050795
v -0.000007 -0.237589 -7.132897
v -0.000007 -0.287661 -7.129012
v -0.000007 -0.336116 -7.113930
v -0.000007 -0.381092 -7.088222
v -0.000007 -0.420859 -7.052880
v -0.000007 -0.006121 -6.942038
v -0.000007 -0.028385 -6.993960
v -0.000007 -0.058997 -7.039866
v -0.000007 -0.096778 -7.078001
v -0.000007 -0.140278 -7.106888
v -0.000007 -0.187824 -7.125423
v 12.280147 -0.668315 -0.000038
v 12.230573 -0.639973 -0.000038
v 12.168918 -0.571681 -0.000038
v 12.183862 -0.460464 -0.000038
v 12.202641 -0.060503 -0.000038
v 12.407327 -0.707990 -0.000003
v 12.286458 -0.382608 -0.000038
v 11.976665 -0.000001 -0.000039
vn -0.4965 0.0003 0.8680
vn 0.0151 0.9995 -0.0266
vn -0.0341 0.9976 0.0595
vn -0.1292 0.9655 0.2259
vn -0.2204 0.8961 0.3853
vn -0.3028 0.7924 0.5296
vn -0.3737 0.6582 0.6536
vn -0.4302 0.4986 0.7525
vn -0.4702 0.3200 0.8225
vn -0.4921 0.1290 0.8609
vn -0.4951 -0.0670 0.8662
vn -0.4791 -0.2604 0.8383
vn -0.4447 -0.4437 0.7781
vn -0.3931 -0.6101 0.6879
vn -0.3265 -0.7530 0.5713
vn -0.3932 -0.6100 0.6880
vn -0.4791 -0.2603 0.8383
vn -0.4702 0.3199 0.8225
vn -0.2203 0.8962 0.3852
vn -0.1293 0.9655 0.2260
vn 0.5000 0.0003 -0.8660
vn -0.0152 0.9995 0.0266
vn 0.0344 0.9976 -0.0594
vn 0.1301 0.9655 -0.2253
vn 0.2219 0.8961 -0.3845
vn 0.3049 0.7924 -0.5284
vn 0.3763 0.6582 -0.6521
vn 0.4332 0.4986 -0.7508
vn 0.4735 0.3200 -0.8206
vn 0.4956 0.1289 -0.8590
vn 0.4986 -0.0670 -0.8642
vn 0.4825 -0.2604 -0.8363
vn 0.4478 -0.4437 -0.7763
vn 0.3959 -0.6101 -0.6864
vn 0.3287 -0.7530 -0.5700
vn 0.3959 -0.6100 -0.6864
vn 0.4825 -0.2603 -0.8363
vn 0.4956 0.1290 -0.8589
vn 0.4735 0.3199 -0.8206
vn 0.2218 0.8962 -0.3843
vn 0.1302 0.9655 -0.2255
vn 0.1300 0.9656 0.2253
vn 0.2215 0.8963 0.3841
vn 0.3046 0.7927 0.5281
vn 0.3759 0.6585 0.6519
vn 0.4329 0.4990 0.7508
vn 0.4732 0.3202 0.8207
vn 0.4953 0.1291 0.8591
vn 0.4983 -0.0671 0.8644
vn 0.4822 -0.2606 0.8364
vn 0.4475 -0.4441 0.7763
vn 0.3955 -0.6104 0.6863
vn 0.3284 -0.7533 0.5699
vn 0.3955 -0.6105 0.6862
vn 0.4475 -0.4440 0.7763
vn 0.4821 -0.2606 0.8364
vn 0.3759 0.6585 0.6520
vn 0.2214 0.8964 0.3839
vn 0.1300 0.9656 0.2254
vn 0.0343 0.9976 0.0593
vn -0.0152 0.9995 -0.0265
vn 0.4998 0.0003 0.8662
vn -0.5015 0.0003 -0.8652
vn 0.0153 0.9995 0.0266
vn -0.0346 0.9976 -0.0595
vn -0.1309 0.9653 -0.2258
vn -0.2228 0.8958 -0.3846
vn -0.3063 0.7916 -0.5287
vn -0.3778 0.6572 -0.6522
vn -0.4347 0.4977 -0.7505
vn -0.4750 0.3192 -0.8201
vn -0.4970 0.1286 -0.8582
vn -0.5000 -0.0669 -0.8634
vn -0.4839 -0.2598 -0.8357
vn -0.4493 -0.4428 -0.7759
vn -0.3974 -0.6091 -0.6863
vn -0.3302 -0.7522 -0.5703
vn -0.3974 -0.6091 -0.6864
vn -0.4840 -0.2597 -0.8357
vn -0.5001 -0.0669 -0.8634
vn -0.4970 0.1287 -0.8581
vn -0.2229 0.8957 -0.3847
vn -0.0000 -1.0000 -0.0000
vn -0.0000 1.0000 -0.0000
vt 0.000000 0.000000
vt 0.000000 0.000000
vt 0.000000 0.000000
vt 0.000000 0.000000
vt 0.000000 0.000000
vt 0.000000 0.000000
vt 0.000000 0.000000
vt 0.000000 0.000000
vt 0.000000 0.000000
vt 0.000000 0.000000
vt 0.000000 0.000000
vt 0.000000 0.000000
vt 0.000000 0.000000
vt 0.000000 0.000000
vt 0.000000 0.000000
vt 0.000000 0.000000
vt 0.000000 0.000000
vt 0.000000 0.000000
vt 0.000000 0.000000
vt 0.000000 0.000000
vt 0.000000 0.000000
vt 0.000000 0.000000
vt 0.000000 0.000000
vt 0.000000 0.000000
vt 0.000000 0.000000
vt 0.000000 0.000000
vt 0.000000 0.000000
vt 0.000000 0.000000
vt 0.000000 0.000000
vt 0.000000 0.000000
vt 0.000000 0.000000
vt 0.000000 0.000000
vt 0.000000 0.000000
vt 0.000000 0.000000
vt 0.000000 0.000000
vt 0.000000 0.000000
vt 0.000000 0.000000
vt 0.000000 0.000000
vt 0.000000 0.000000
vt 0.000000 0.000000
vt 0.000000 0.000000
vt 0.000000 0.000000
vt 0.000000 0.000000
vt 0.000000 0.000000
vt 0.000000 0.000000
vt 0.000000 0.000000
vt 0.000000 0.000000
vt 0.000000 0.000000
vt 0.000000 0.000000
vt 0.000000 0.000000
vt 0.000000 0.000000
vt 0.000000 0.000000
vt 0.000000 0.000000
vt 0.000000 0.000000
vt 0.000000 0.000000
vt 0.000000 0.000000
vt 0.000000 0.000000
vt 0.000000 0.000000
vt 0.000000 0.000000
vt 0.000000 0.000000
vt 0.000000 0.000000
vt 0.000000 0.000000
vt 0.000000 0.000000
vt 0.000000 0.000000
vt 0.000000 0.000000
vt 0.000000 0.000000
vt 0.000000 0.000000
vt 0.000000 0.000000
vt 0.000000 0.000000
vt 0.000000 0.000000
vt 0.000000 0.000000
vt 0.000000 0.000000
vt 0.000000 0.000000
vt 0.000000 0.000000
vt 0.000000 0.000000
vt 0.000000 0.000000
vt 0.000000 0.000000
vt 0.000000 0.000000
vt 0.000000 0.000000
vt 0.000000 0.000000
vt 0.000000 0.000000
vt 0.000000 0.000000
vt 0.000000 0.000000
vt 0.000000 0.000000
vt 0.000000 0.000000
vt 0.000000 0.000000
vt 0.000000 0.000000
vt 0.000000 0.000000
vt 0.000000 0.000000
vt 0.000000 0.000000
vt 0.000000 0.000000
vt 0.000000 0.000000
vt 0.000000 0.000000
vt 0.000000 0.000000
vt 0.000000 0.000000
vt 0.000000 0.000000
vt 0.000000 0.000000
vt 0.000000 0.000000
vt 0.000000 0.000000
vt 0.000000 0.000000
vt 0.000000 0.000000
vt 0.000000 0.000000
vt 0.000000 0.000000
vt 0.000000 0.000000
vt 0.000000 0.000000
vt 0.000000 0.000000
vt 0.000000 0.000000
vt 0.000000 0.000000
s 0
usemtl 
f 1/1/1 22/22/1 20/20/1 2/2/1
f 20/20/2 21/21/2 3/3/2 2/2/2
f 21/21/3 24/24/3 4/4/3 3/3/3
f 4/4/4 24/24/4 25/25/4 52/52/4
f 25/25/5 26/26/5 5/5/5 52/52/5
f 5/5/6 26/26/6 27/27/6 47/47/6
f 47/47/7 27/27/7 28/28/7 48/48/7
f 28/28/8 29/29/8 6/6/8 48/48/8
f 6/6/9 29/29/9 30/30/9 49/49/9
f 30/30/10 31/31/10 7/7/10 49/49/10
f 31/31/11 32/32/11 8/8/11 7/7/11
f 8/8/12 32/32/12 33/33/12 50/50/12
f 33/33/13 34/34/13 9/9/13 50/50/13
f 34/34/14 35/35/14 10/10/14 9/9/14
f 35/35/15 40/40/15 14/14/15 10/10/15
f 14/14/16 40/40/16 39/39/16 53/53/16
f 39/39/13 38/38/13 13/13/13 53/53/13
f 38/38/17 37/37/17 11/11/17 13/13/17
f 37/37/11 36/36/11 12/12/11 11/11/11
f 36/36/10 46/46/10 19/19/10 12/12/10
f 46/46/18 45/45/18 18/18/18 19/19/18
f 45/45/8 44/44/8 17/17/8 18/18/8
f 17/17/7 44/44/7 43/43/7 51/51/7
f 43/43/6 42/42/6 16/16/6 51/51/6
f 42/42/19 41/41/19 15/15/19 16/16/19
f 54/54/20 15/15/20 41/41/20 23/23/20
f 55/55/21 76/76/21 74/74/21 56/56/21
f 74/74/22 75/75/22 57/57/22 56/56/22
f 75/75/23 78/78/23 58/58/23 57/57/23
f 58/58/24 78/78/24 79/79/24 106/106/24
f 79/79/25 80/80/25 59/59/25 106/106/25
f 59/59/26 80/80/26 81/81/26 101/101/26
f 101/101/27 81/81/27 82/82/27 102/102/27
f 82/82/28 83/83/28 60/60/28 102/102/28
f 60/60/29 83/83/29 84/84/29 103/103/29
f 84/84/30 85/85/30 61/61/30 103/103/30
f 85/85/31 86/86/31 62/62/31 61/61/31
f 62/62/32 86/86/32 87/87/32 104/104/32
f 87/87/33 88/88/33 63/63/33 104/104/33
f 88/88/34 89/89/34 64/64/34 63/63/34
f 89/89/35 94/94/35 68/68/35 64/64/35
f 68/68/36 94/94/36 93/93/36 107/107/36
f 93/93/33 92/92/33 67/67/33 107/107/33
f 92/92/37 91/91/37 65/65/37 67/67/37
f 91/91/31 90/90/31 66/66/31 65/65/31
f 90/90/38 100/100/38 73/73/38 66/66/38
f 100/100/39 99/99/39 72/72/39 73/73/39
f 99/99/28 98/98/28 71/71/28 72/72/28
f 71/71/27 98/98/27 97/97/27 105/105/27
f 97/97/26 96/96/26 70/70/26 105/105/26
f 96/96/40 95/95/40 69/69/40 70/70/40
f 108/108/41 69/69/41 95/95/41 77/77/41
f 23/23/42 41/41/42 69/69/42 108/108/42
f 69/69/43 41/41/43 42/42/43 70/70/43
f 70/70/44 42/42/44 43/43/44 105/105/44
f 105/105/45 43/43/45 44/44/45 71/71/45
f 71/71/46 44/44/46 45/45/46 72/72/46
f 72/72/47 45/45/47 46/46/47 73/73/47
f 73/73/48 46/46/48 36/36/48 66/66/48
f 66/66/49 36/36/49 37/37/49 65/65/49
f 65/65/50 37/37/50 38/38/50 67/67/50
f 67/67/51 38/38/51 39/39/51 107/107/51
f 107/107/52 39/39/52 40/40/52 68/68/52
f 68/68/53 40/40/53 35/35/53 64/64/53
f 64/64/54 35/35/54 34/34/54 63/63/54
f 63/63/55 34/34/55 33/33/55 104/104/55
f 104/104/56 33/33/56 32/32/56 62/62/56
f 62/62/49 32/32/49 31/31/49 61/61/49
f 61/61/48 31/31/48 30/30/48 103/103/48
f 103/103/47 30/30/47 29/29/47 60/60/47
f 60/60/46 29/29/46 28/28/46 102/102/46
f 102/102/57 28/28/57 27/27/57 101/101/57
f 101/101/44 27/27/44 26/26/44 59/59/44
f 59/59/58 26/26/58 25/25/58 106/106/58
f 106/106/59 25/25/59 24/24/59 58/58/59
f 58/58/60 24/24/60 21/21/60 57/57/60
f 57/57/61 21/21/61 20/20/61 56/56/61
f 56/56/62 20/20/62 22/22/62 55/55/62
f 1/1/63 2/2/63 74/74/63 76/76/63
f 74/74/64 2/2/64 3/3/64 75/75/64
f 75/75/65 3/3/65 4/4/65 78/78/65
f 78/78/66 4/4/66 52/52/66 79/79/66
f 79/79/67 52/52/67 5/5/67 80/80/67
f 80/80/68 5/5/68 47/47/68 81/81/68
f 81/81/69 47/47/69 48/48/69 82/82/69
f 82/82/70 48/48/70 6/6/70 83/83/70
f 83/83/71 6/6/71 49/49/71 84/84/71
f 84/84/72 49/49/72 7/7/72 85/85/72
f 85/85/73 7/7/73 8/8/73 86/86/73
f 86/86/74 8/8/74 50/50/74 87/87/74
f 87/87/75 50/50/75 9/9/75 88/88/75
f 88/88/76 9/9/76 10/10/76 89/89/76
f 89/89/77 10/10/77 14/14/77 94/94/77
f 94/94/78 14/14/78 53/53/78 93/93/78
f 93/93/75 53/53/75 13/13/75 92/92/75
f 92/92/79 13/13/79 11/11/79 91/91/79
f 91/91/80 11/11/80 12/12/80 90/90/80
f 90/90/81 12/12/81 19/19/81 100/100/81
f 100/100/71 19/19/71 18/18/71 99/99/71
f 99/99/70 18/18/70 17/17/70 98/98/70
f 98/98/69 17/17/69 51/51/69 97/97/69
f 97/97/68 51/51/68 16/16/68 96/96/68
f 96/96/82 16/16/82 15/15/82 95/95/82
f 95/95/66 15/15/66 54/54/66 77/77/66
f 1/1/83 76/76/83 55/55/83 22/22/83
f 23/23/84 108/108/84 77/77/84 54/54/84
